<?xml version="1.0" encoding="utf-8"?>
<!-- Generator: Adobe Illustrator 27.5.0, SVG Export Plug-In . SVG Version: 6.00 Build 0)  -->
<svg version="1.1" id="Layer_1" xmlns="http://www.w3.org/2000/svg" xmlns:xlink="http://www.w3.org/1999/xlink" x="0px" y="0px"
	 viewBox="0 0 71 72" style="enable-background:new 0 0 71 72;" xml:space="preserve">
<style type="text/css">
	.st0{fill-rule:evenodd;clip-rule:evenodd;fill:#383838;}
</style>
<path class="st0" d="M47.7,34.6c0.3,0.3,0.6,0.8,0.6,1.4c0,0.5-0.2,1-0.6,1.4c0,0,0,0,0,0c0,0,0,0,0,0L36.6,48.5
	c-0.8,0.8-2,0.8-2.7,0s-0.8-2,0-2.7l7.8-7.8H24.1c-1.1,0-1.9-0.9-1.9-1.9s0.9-1.9,1.9-1.9h17.6l-7.8-7.8l0,0
	c-0.4-0.4-0.6-0.9-0.6-1.4c0-0.5,0.2-1,0.6-1.4l0,0c0.8-0.8,2-0.8,2.7,0l0,0L47.7,34.6C47.7,34.6,47.7,34.6,47.7,34.6z"/>
</svg>
