<svg width="83" height="83" viewBox="0 0 83 83" fill="none" xmlns="http://www.w3.org/2000/svg">
<rect x="82.752" width="82.752" height="82.752" rx="40" transform="rotate(90 82.752 0)" fill="#F80094"/>
<rect x="63.876" y="18.877" width="45" height="45" transform="rotate(90 63.876 18.877)" fill="white" fill-opacity="0.01"/>
<path fill-rule="evenodd" clip-rule="evenodd" d="M61.5745 42.4047C61.8379 42.1417 62.001 41.7784 62.001 41.3769C62.001 40.975 61.8379 40.6117 61.5745 40.3487L42.4022 21.1772C41.8348 20.6102 40.9158 20.6102 40.3483 21.1772C40.0646 21.461 39.9227 21.8328 39.9227 22.2042C39.9227 22.576 40.0646 22.9474 40.3483 23.2311L57.042 39.9244L22.2026 39.9244C21.4009 39.9244 20.7504 40.5744 20.7504 41.3769C20.7504 42.179 21.4009 42.829 22.2026 42.829L57.042 42.829L40.3483 59.5227C39.7809 60.0901 39.7809 61.0091 40.3483 61.5766C40.9158 62.144 41.8348 62.144 42.4022 61.5766L61.5745 42.4047Z" fill="#FAFAFA"/>
<path fill-rule="evenodd" clip-rule="evenodd" d="M62.9003 39.0228C63.5007 39.6228 63.876 40.4574 63.876 41.3769C63.876 42.2963 63.5005 43.1308 62.9003 43.7305C62.9002 43.7306 62.9001 43.7307 62.9 43.7309C62.8998 43.7311 62.8995 43.7313 62.8993 43.7316L43.728 62.9024C42.4284 64.2021 40.3222 64.2021 39.0225 62.9024C37.7228 61.6027 37.7228 59.4966 39.0225 58.1968L52.5154 44.704L22.2026 44.704C20.3657 44.704 18.8754 43.2149 18.8754 41.3769C18.8754 39.5389 20.3654 38.0494 22.2026 38.0494L52.5153 38.0494L39.0225 24.557L39.0225 24.5569C38.3735 23.9079 38.0477 23.0537 38.0477 22.2042C38.0477 21.3554 38.3733 20.5006 39.0225 19.8514L39.023 19.8509C40.3226 18.5523 42.428 18.5523 43.7276 19.8509L43.728 19.8514L62.8993 39.0218C62.8996 39.0221 62.9 39.0225 62.9003 39.0228Z" fill="#FAFAFA"/>
</svg>
